<?xml version="1.0" standalone="no"?><!DOCTYPE svg PUBLIC "-//W3C//DTD SVG 1.1//EN" "http://www.w3.org/Graphics/SVG/1.1/DTD/svg11.dtd"><svg t="1742279693194" class="icon" viewBox="0 0 1024 1024" version="1.1" xmlns="http://www.w3.org/2000/svg" p-id="8447" xmlns:xlink="http://www.w3.org/1999/xlink" width="200" height="200"><path d="M832 85.333333H192a21.333333 21.333333 0 0 0-21.333333 21.333334v810.666666a21.333333 21.333333 0 0 0 21.333333 21.333334h21.333333v21.333333a21.333333 21.333333 0 0 0 42.666667 0v-21.333333h512v21.333333a21.333333 21.333333 0 0 0 42.666667 0v-21.333333h21.333333a21.333333 21.333333 0 0 0 21.333333-21.333334V106.666667a21.333333 21.333333 0 0 0-21.333333-21.333334zM506.048 640l-37.802667-113.408a21.333333 21.333333 0 0 0-40.490666 13.482667L461.013333 640H384v-106.666667a21.333333 21.333333 0 0 0-42.666667 0v106.666667h-42.666666v-106.666667a21.333333 21.333333 0 0 0-42.666667 0v106.666667h-42.666667V384h597.333334v256zM213.333333 128h597.333334v213.333333h-42.666667v-106.666666a21.333333 21.333333 0 0 0-42.666667 0v106.666666h-42.666666v-106.666666a21.333333 21.333333 0 0 0-42.666667 0v106.666666h-77.056l33.301333-99.925333a21.333333 21.333333 0 0 0-40.490666-13.482667L517.952 341.333333H213.333333z m597.333334 768h-42.666667v-106.666667a21.333333 21.333333 0 0 0-42.666667 0v106.666667h-42.666666v-106.666667a21.333333 21.333333 0 0 0-42.666667 0v106.666667h-77.056l33.301333-99.925333a21.333333 21.333333 0 0 0-40.490666-13.482667L517.952 896H213.333333V682.666667h597.333334z" fill="#d4237a" p-id="8448"></path></svg>